# xmcd CD database file
#
# Track frame offsets:
#	150
#	39683
#	82227
#	121387
#	143740
#	181699
#	210028
#	249103
#	273191
#	310390
#	345049
#
# Disc length: 4710 seconds
#
# Revision: 0
# Processed by: cddbd v1.5.2PL0 Copyright (c) Steve Scherf et al.
# Submitted via: CDex 2.23
#
DISCID=8912640b
DTITLE=Curtis Amy - The Blues Message and Groovin' Blue
DYEAR=1960
DGENRE=Jazz
TTITLE0=Searchin'
TTITLE1=Goin' Down, Catch Me A Woman
TTITLE2=The Blues Message
TTITLE3=Come Rain Or Come Shine
TTITLE4=This Is The Blues
TTITLE5=Gone Into It
TTITLE6=Annsome
TTITLE7=Bobblin'
TTITLE8=Groovin' Blue
TTITLE9=Beautiful You
TTITLE10=Very Frank
EXTD=YEAR: 1960
EXTT0=
EXTT1=
EXTT2=
EXTT3=
EXTT4=
EXTT5=
EXTT6=
EXTT7=
EXTT8=
EXTT9=
EXTT10=
PLAYORDER=
